<mxfile host="app.diagrams.net" modified="2021-07-25T16:19:16.906Z" agent="5.0 (Windows NT 10.0; Win64; x64) AppleWebKit/537.36 (KHTML, like Gecko) Chrome/91.0.4472.164 Safari/537.36" etag="-MQNCfOACVxZgixHy-jc" version="14.9.2" type="github">
  <diagram name="Page-1" id="c7558073-3199-34d8-9f00-42111426c3f3">
    <mxGraphModel dx="868" dy="460" grid="1" gridSize="10" guides="1" tooltips="1" connect="1" arrows="1" fold="1" page="1" pageScale="1" pageWidth="826" pageHeight="1169" background="none" math="0" shadow="0">
      <root>
        <mxCell id="0" />
        <mxCell id="1" parent="0" />
        <mxCell id="7MjtWZ7W4mau19jce7l3-97" value="int _printf(const char *format, ...);" style="text;whiteSpace=wrap;html=1;" vertex="1" parent="1">
          <mxGeometry x="620" y="440" width="180" height="30" as="geometry" />
        </mxCell>
        <mxCell id="7MjtWZ7W4mau19jce7l3-101" value="" style="endArrow=none;dashed=1;html=1;" edge="1" parent="1">
          <mxGeometry width="50" height="50" relative="1" as="geometry">
            <mxPoint x="630" y="490" as="sourcePoint" />
            <mxPoint x="630" y="420" as="targetPoint" />
            <Array as="points">
              <mxPoint x="600" y="490" />
              <mxPoint x="600" y="420" />
            </Array>
          </mxGeometry>
        </mxCell>
        <mxCell id="7MjtWZ7W4mau19jce7l3-102" value="" style="endArrow=none;dashed=1;html=1;edgeStyle=entityRelationEdgeStyle;" edge="1" parent="1">
          <mxGeometry width="50" height="50" relative="1" as="geometry">
            <mxPoint x="520" y="480" as="sourcePoint" />
            <mxPoint x="600" y="454.5" as="targetPoint" />
          </mxGeometry>
        </mxCell>
        <mxCell id="7MjtWZ7W4mau19jce7l3-105" value="start" style="html=1;dashed=0;whitespace=wrap;shape=mxgraph.dfd.start" vertex="1" parent="1">
          <mxGeometry x="440" y="460" width="80" height="40" as="geometry" />
        </mxCell>
        <mxCell id="7MjtWZ7W4mau19jce7l3-106" value="" style="endArrow=classic;html=1;exitX=0.5;exitY=0.5;exitDx=0;exitDy=20;exitPerimeter=0;" edge="1" parent="1" source="7MjtWZ7W4mau19jce7l3-105">
          <mxGeometry width="50" height="50" relative="1" as="geometry">
            <mxPoint x="480" y="510" as="sourcePoint" />
            <mxPoint x="450" y="560" as="targetPoint" />
            <Array as="points">
              <mxPoint x="450" y="510" />
            </Array>
          </mxGeometry>
        </mxCell>
        <mxCell id="7MjtWZ7W4mau19jce7l3-107" value="Input:(different&lt;br&gt;types of values: int,&lt;br&gt;string,&lt;br&gt;null.." style="shape=parallelogram;perimeter=parallelogramPerimeter;whiteSpace=wrap;html=1;dashed=0;" vertex="1" parent="1">
          <mxGeometry x="380" y="560" width="150" height="70" as="geometry" />
        </mxCell>
        <mxCell id="7MjtWZ7W4mau19jce7l3-108" value="" style="endArrow=classic;html=1;" edge="1" parent="1">
          <mxGeometry width="50" height="50" relative="1" as="geometry">
            <mxPoint x="440" y="630" as="sourcePoint" />
            <mxPoint x="400" y="690" as="targetPoint" />
            <Array as="points">
              <mxPoint x="400" y="650" />
            </Array>
          </mxGeometry>
        </mxCell>
        <mxCell id="7MjtWZ7W4mau19jce7l3-109" value="Initialization of&amp;nbsp;&lt;br&gt;function picker" style="html=1;dashed=0;whitespace=wrap;" vertex="1" parent="1">
          <mxGeometry x="350" y="690" width="100" height="50" as="geometry" />
        </mxCell>
        <mxCell id="7MjtWZ7W4mau19jce7l3-110" value="Which print function to use according to the type of value" style="text;html=1;strokeColor=none;fillColor=none;align=center;verticalAlign=middle;whiteSpace=wrap;rounded=0;" vertex="1" parent="1">
          <mxGeometry x="81" y="770" width="110" height="50" as="geometry" />
        </mxCell>
        <mxCell id="7MjtWZ7W4mau19jce7l3-111" value="" style="endArrow=classic;html=1;exitX=0.5;exitY=1;exitDx=0;exitDy=0;" edge="1" parent="1" source="7MjtWZ7W4mau19jce7l3-109">
          <mxGeometry width="50" height="50" relative="1" as="geometry">
            <mxPoint x="390" y="860" as="sourcePoint" />
            <mxPoint x="400" y="770" as="targetPoint" />
          </mxGeometry>
        </mxCell>
        <mxCell id="7MjtWZ7W4mau19jce7l3-112" value="Is Input equal&lt;br&gt;to defined&lt;br&gt;types of&lt;br&gt;&amp;nbsp;values" style="shape=rhombus;html=1;dashed=0;whitespace=wrap;perimeter=rhombusPerimeter;" vertex="1" parent="1">
          <mxGeometry x="325" y="770" width="150" height="110" as="geometry" />
        </mxCell>
        <mxCell id="7MjtWZ7W4mau19jce7l3-113" value="" style="endArrow=none;dashed=1;html=1;" edge="1" parent="1">
          <mxGeometry width="50" height="50" relative="1" as="geometry">
            <mxPoint x="160" y="750" as="sourcePoint" />
            <mxPoint x="160" y="830" as="targetPoint" />
            <Array as="points">
              <mxPoint x="200" y="750" />
              <mxPoint x="210" y="750" />
              <mxPoint x="210" y="770" />
              <mxPoint x="210" y="830" />
            </Array>
          </mxGeometry>
        </mxCell>
        <mxCell id="7MjtWZ7W4mau19jce7l3-114" value="" style="endArrow=none;dashed=1;html=1;dashPattern=1 3;strokeWidth=2;exitX=0.107;exitY=0.655;exitDx=0;exitDy=0;exitPerimeter=0;" edge="1" parent="1" source="7MjtWZ7W4mau19jce7l3-112">
          <mxGeometry width="50" height="50" relative="1" as="geometry">
            <mxPoint x="320" y="850" as="sourcePoint" />
            <mxPoint x="220" y="800" as="targetPoint" />
            <Array as="points">
              <mxPoint x="260" y="840" />
              <mxPoint x="260" y="800" />
            </Array>
          </mxGeometry>
        </mxCell>
      </root>
    </mxGraphModel>
  </diagram>
</mxfile>
